<svg width="1497" height="393" viewBox="0 0 1497 393" fill="none" xmlns="http://www.w3.org/2000/svg">
<path d="M1440.74 67.9032L1414.88 50C1409.7 55.6677 1401.01 56.781 1394.52 52.2904L1264.94 239.461C1271.42 243.951 1273.44 252.481 1269.96 259.321L1295.82 277.225C1301 271.557 1309.69 270.444 1316.18 274.934C1322.66 279.425 1324.68 287.955 1321.2 294.795L1347.06 312.698C1352.24 307.03 1360.93 305.917 1367.42 310.408L1497 123.237C1490.51 118.746 1488.5 110.216 1491.98 103.376L1466.12 85.4729C1460.94 91.1407 1452.25 92.2539 1445.76 87.7633C1439.27 83.2733 1437.26 74.7428 1440.74 67.9032Z" fill="#F2CC7B"/>
<path d="M1362.78 285.829L1451.25 158.047L1378.04 107.367L1289.58 235.149L1362.78 285.829Z" fill="#012970"/>
<path opacity="0.1" d="M1341.58 308.913L1390.61 99.977L1375.29 96.3817L1376.59 82.8507L1373.82 82.1997L1264.94 239.464C1271.42 243.954 1273.44 252.484 1269.96 259.324L1295.82 277.228C1301 271.56 1309.69 270.447 1316.18 274.937C1322.66 279.428 1324.68 287.958 1321.2 294.798L1341.58 308.913Z" fill="black"/>
<path d="M1297.73 81.6578L1267.11 74.4724C1264.37 81.6419 1256.69 85.8636 1249.01 84.0613L1197 305.692C1204.68 307.495 1209.68 314.692 1208.95 322.333L1239.57 329.519C1242.31 322.349 1249.99 318.127 1257.67 319.93C1265.35 321.732 1270.36 328.93 1269.62 336.571L1300.24 343.756C1302.98 336.587 1310.66 332.365 1318.34 334.167L1370.35 112.537C1362.67 110.735 1357.67 103.537 1358.4 95.896L1327.78 88.7107C1325.04 95.8801 1317.36 100.102 1309.68 98.2995C1302 96.496 1297 89.2989 1297.73 81.6578Z" fill="#FFD782"/>
<path d="M1251.28 123.702C1250.9 123.702 1250.51 123.658 1250.12 123.568L1240.28 121.257C1237.56 120.62 1235.87 117.899 1236.51 115.18C1237.15 112.462 1239.87 110.774 1242.59 111.413L1252.43 113.723C1255.15 114.361 1256.84 117.082 1256.2 119.801C1255.65 122.13 1253.57 123.702 1251.28 123.702Z" fill="#012970"/>
<path d="M1332.61 142.788C1332.22 142.788 1331.84 142.744 1331.45 142.653L1311.12 137.882C1308.4 137.245 1306.71 134.524 1307.35 131.805C1307.99 129.087 1310.7 127.399 1313.43 128.038L1333.76 132.809C1336.48 133.447 1338.16 136.168 1337.52 138.886C1336.98 141.216 1334.9 142.788 1332.61 142.788ZM1291.94 133.247C1291.56 133.247 1291.17 133.203 1290.78 133.112L1270.45 128.341C1267.73 127.703 1266.05 124.982 1266.69 122.263C1267.32 119.545 1270.04 117.858 1272.76 118.496L1293.09 123.268C1295.81 123.905 1297.5 126.626 1296.86 129.345C1296.32 131.675 1294.24 133.247 1291.94 133.247Z" fill="#012970"/>
<path d="M1362.78 149.869C1362.4 149.869 1362.01 149.825 1361.62 149.734L1351.78 147.424C1349.06 146.786 1347.37 144.065 1348.01 141.347C1348.65 138.628 1351.37 136.941 1354.09 137.58L1363.93 139.89C1366.65 140.527 1368.34 143.249 1367.7 145.967C1367.15 148.297 1365.08 149.869 1362.78 149.869Z" fill="#012970"/>
<path d="M1305.05 312.994L1340.56 161.69L1253.88 141.344L1218.36 292.648L1305.05 312.994Z" fill="#012970"/>
<path d="M1440.74 67.9032L1414.88 50C1409.7 55.6677 1401.01 56.781 1394.52 52.2904L1264.94 239.461C1271.42 243.951 1273.44 252.481 1269.96 259.321L1295.82 277.225C1301 271.557 1309.69 270.444 1316.18 274.934C1322.66 279.425 1324.68 287.955 1321.2 294.795L1347.06 312.698C1352.24 307.03 1360.93 305.917 1367.42 310.408L1497 123.237C1490.51 118.746 1488.5 110.216 1491.98 103.376L1466.12 85.4729C1460.94 91.1407 1452.25 92.2539 1445.76 87.7633C1439.27 83.2733 1437.26 74.7428 1440.74 67.9032Z" fill="#F2CC7B"/>
<path d="M1362.78 285.829L1451.25 158.047L1378.04 107.367L1289.58 235.149L1362.78 285.829Z" fill="#001D4A"/>
<path opacity="0.1" d="M1341.58 308.913L1390.61 99.977L1375.29 96.3817L1376.59 82.8507L1373.82 82.1997L1264.94 239.464C1271.42 243.954 1273.44 252.484 1269.96 259.324L1295.82 277.228C1301 271.56 1309.69 270.447 1316.18 274.937C1322.66 279.428 1324.68 287.958 1321.2 294.798L1341.58 308.913Z" fill="black"/>
<path d="M1297.73 81.6578L1267.11 74.4724C1264.37 81.6419 1256.69 85.8636 1249.01 84.0613L1197 305.692C1204.68 307.495 1209.68 314.692 1208.95 322.333L1239.57 329.519C1242.31 322.349 1249.99 318.127 1257.67 319.93C1265.35 321.732 1270.36 328.93 1269.62 336.571L1300.24 343.756C1302.98 336.587 1310.66 332.365 1318.34 334.167L1370.35 112.537C1362.67 110.735 1357.67 103.537 1358.4 95.896L1327.78 88.7107C1325.04 95.8801 1317.36 100.102 1309.68 98.2995C1302 96.496 1297 89.2989 1297.73 81.6578Z" fill="#FFD782"/>
<path d="M1251.28 123.702C1250.9 123.702 1250.51 123.658 1250.12 123.568L1240.28 121.257C1237.56 120.62 1235.87 117.899 1236.51 115.18C1237.15 112.462 1239.87 110.774 1242.59 111.413L1252.43 113.723C1255.15 114.361 1256.84 117.082 1256.2 119.801C1255.65 122.13 1253.57 123.702 1251.28 123.702Z" fill="#001D4A"/>
<path d="M1332.61 142.788C1332.22 142.788 1331.84 142.744 1331.45 142.653L1311.12 137.882C1308.4 137.245 1306.71 134.524 1307.35 131.805C1307.99 129.087 1310.7 127.399 1313.43 128.038L1333.76 132.809C1336.48 133.447 1338.16 136.168 1337.52 138.886C1336.98 141.216 1334.9 142.788 1332.61 142.788ZM1291.94 133.247C1291.56 133.247 1291.17 133.203 1290.78 133.112L1270.45 128.341C1267.73 127.703 1266.05 124.982 1266.69 122.263C1267.32 119.545 1270.04 117.858 1272.76 118.496L1293.09 123.268C1295.81 123.905 1297.5 126.626 1296.86 129.345C1296.32 131.675 1294.24 133.247 1291.94 133.247Z" fill="#001D4A"/>
<path d="M1362.78 149.869C1362.4 149.869 1362.01 149.825 1361.62 149.734L1351.78 147.424C1349.06 146.786 1347.37 144.065 1348.01 141.347C1348.65 138.628 1351.37 136.941 1354.09 137.58L1363.93 139.89C1366.65 140.527 1368.34 143.249 1367.7 145.967C1367.15 148.297 1365.08 149.869 1362.78 149.869Z" fill="#001D4A"/>
<path d="M1305.05 312.994L1340.56 161.69L1253.88 141.344L1218.36 292.648L1305.05 312.994Z" fill="#001D4A"/>
<path d="M1383.96 90.3598C1382.96 90.3598 1381.96 90.0686 1381.08 89.4603L1372.77 83.7041C1370.47 82.1144 1369.9 78.9644 1371.49 76.6687C1373.08 74.3724 1376.23 73.8 1378.53 75.3896L1386.84 81.1459C1389.14 82.7355 1389.71 85.8855 1388.12 88.1812C1387.14 89.5992 1385.56 90.3598 1383.96 90.3598Z" fill="#001D4A"/>
<path d="M1452.64 137.914C1451.65 137.914 1450.64 137.622 1449.77 137.014L1432.6 125.127C1430.3 123.537 1429.73 120.387 1431.32 118.092C1432.91 115.796 1436.06 115.223 1438.35 116.813L1455.52 128.7C1457.82 130.29 1458.39 133.44 1456.8 135.735C1455.82 137.153 1454.24 137.914 1452.64 137.914ZM1418.3 114.139C1417.31 114.139 1416.3 113.847 1415.43 113.239L1398.26 101.352C1395.96 99.7624 1395.39 96.6124 1396.98 94.3173C1398.57 92.0211 1401.72 91.4486 1404.01 93.0382L1421.18 104.926C1423.48 106.515 1424.05 109.665 1422.46 111.961C1421.48 113.378 1419.9 114.139 1418.3 114.139Z" fill="#001D4A"/>
<path d="M1478.12 155.555C1477.13 155.555 1476.12 155.263 1475.25 154.656L1466.93 148.899C1464.64 147.31 1464.06 144.16 1465.65 141.864C1467.24 139.568 1470.39 138.995 1472.69 140.585L1481 146.341C1483.3 147.931 1483.87 151.081 1482.28 153.377C1481.3 154.794 1479.72 155.555 1478.12 155.555Z" fill="#001D4A"/>
<path d="M84.96 293.592C62.88 293.592 45.408 287.16 32.544 274.296C19.68 261.24 13.248 243.576 13.248 221.304C13.248 206.904 16.128 194.232 21.888 183.288C27.648 172.152 35.52 163.608 45.504 157.656C55.68 151.512 67.392 148.44 80.64 148.44C99.648 148.44 114.528 154.584 125.28 166.872C136.032 178.968 141.408 195.672 141.408 216.984C141.408 222.936 138.048 225.912 131.328 225.912H36C36.768 241.848 41.376 254.04 49.824 262.488C58.272 270.744 69.984 274.872 84.96 274.872C91.296 274.872 97.728 274.104 104.256 272.568C110.784 270.84 117.12 267.864 123.264 263.64C127.68 260.76 131.328 260.184 134.208 261.912C137.28 263.64 138.816 266.328 138.816 269.976C139.008 273.432 137.088 276.504 133.056 279.192C126.72 283.8 119.136 287.352 110.304 289.848C101.664 292.344 93.216 293.592 84.96 293.592ZM81.216 165.72C67.968 165.72 57.504 169.848 49.824 178.104C42.144 186.36 37.632 197.208 36.288 210.648H121.248C120.672 196.44 116.928 185.4 110.016 177.528C103.296 169.656 93.696 165.72 81.216 165.72ZM225.61 293.016C218.89 293.016 213.898 289.272 210.634 281.784L160.81 165.432C158.89 161.016 158.794 157.176 160.522 153.912C162.25 150.648 165.706 149.016 170.89 149.016C176.266 149.016 180.202 152.088 182.698 158.232L226.186 264.504L270.25 158.232C271.594 154.776 273.13 152.376 274.858 151.032C276.586 149.688 279.082 149.016 282.346 149.016C286.762 149.016 289.738 150.648 291.274 153.912C292.81 157.176 292.714 160.92 290.986 165.144L240.586 281.784C237.514 289.272 232.522 293.016 225.61 293.016ZM382.804 293.592C360.724 293.592 343.252 287.16 330.388 274.296C317.524 261.24 311.092 243.576 311.092 221.304C311.092 206.904 313.972 194.232 319.732 183.288C325.492 172.152 333.364 163.608 343.348 157.656C353.524 151.512 365.236 148.44 378.484 148.44C397.492 148.44 412.372 154.584 423.124 166.872C433.876 178.968 439.252 195.672 439.252 216.984C439.252 222.936 435.892 225.912 429.172 225.912H333.844C334.612 241.848 339.22 254.04 347.668 262.488C356.116 270.744 367.828 274.872 382.804 274.872C389.14 274.872 395.572 274.104 402.1 272.568C408.628 270.84 414.964 267.864 421.108 263.64C425.524 260.76 429.172 260.184 432.052 261.912C435.124 263.64 436.66 266.328 436.66 269.976C436.852 273.432 434.932 276.504 430.9 279.192C424.564 283.8 416.98 287.352 408.148 289.848C399.508 292.344 391.06 293.592 382.804 293.592ZM379.06 165.72C365.812 165.72 355.348 169.848 347.668 178.104C339.988 186.36 335.476 197.208 334.132 210.648H419.092C418.516 196.44 414.772 185.4 407.86 177.528C401.14 169.656 391.54 165.72 379.06 165.72ZM484.533 293.016C476.853 293.016 473.013 288.984 473.013 280.92V160.824C473.013 152.952 476.757 149.016 484.245 149.016C491.925 149.016 495.765 152.952 495.765 160.824V174.936C500.373 166.104 506.901 159.48 515.349 155.064C523.797 150.648 533.301 148.44 543.861 148.44C577.077 148.44 593.685 166.872 593.685 203.736V280.92C593.685 288.984 589.845 293.016 582.165 293.016C574.293 293.016 570.357 288.984 570.357 280.92V205.176C570.357 192.12 567.765 182.616 562.581 176.664C557.589 170.52 549.525 167.448 538.389 167.448C525.525 167.448 515.253 171.48 507.573 179.544C500.085 187.416 496.341 197.976 496.341 211.224V280.92C496.341 288.984 492.405 293.016 484.533 293.016ZM692.861 293.592C676.349 293.592 663.965 289.272 655.709 280.632C647.453 271.8 643.325 259.128 643.325 242.616V169.176H624.029C617.309 169.176 613.948 166.104 613.948 159.96C613.948 154.008 617.309 151.032 624.029 151.032H643.325V117.912C643.325 110.04 647.261 106.104 655.133 106.104C662.813 106.104 666.653 110.04 666.653 117.912V151.032H702.941C709.661 151.032 713.021 154.008 713.021 159.96C713.021 166.104 709.661 169.176 702.941 169.176H666.653V240.312C666.653 251.256 668.957 259.608 673.565 265.368C678.173 270.936 685.661 273.72 696.029 273.72C699.677 273.72 702.749 273.336 705.245 272.568C707.741 271.8 709.949 271.416 711.869 271.416C713.597 271.224 715.037 271.8 716.189 273.144C717.341 274.488 717.917 276.792 717.917 280.056C717.917 282.36 717.437 284.472 716.477 286.392C715.709 288.312 714.269 289.656 712.157 290.424C709.853 291.192 706.781 291.864 702.941 292.44C699.293 293.208 695.933 293.592 692.861 293.592ZM794.158 293.592C780.526 293.592 768.718 290.616 758.734 284.664C748.75 278.712 740.974 270.36 735.406 259.608C730.03 248.664 727.342 235.8 727.342 221.016C727.342 206.232 730.03 193.464 735.406 182.712C740.974 171.768 748.75 163.32 758.734 157.368C768.718 151.416 780.526 148.44 794.158 148.44C807.598 148.44 819.31 151.416 829.294 157.368C839.47 163.32 847.246 171.768 852.622 182.712C858.19 193.464 860.974 206.232 860.974 221.016C860.974 235.8 858.19 248.664 852.622 259.608C847.246 270.36 839.47 278.712 829.294 284.664C819.31 290.616 807.598 293.592 794.158 293.592ZM794.158 274.872C807.214 274.872 817.678 270.264 825.55 261.048C833.422 251.64 837.358 238.296 837.358 221.016C837.358 203.544 833.422 190.2 825.55 180.984C817.678 171.768 807.214 167.16 794.158 167.16C780.91 167.16 770.35 171.768 762.478 180.984C754.798 190.2 750.958 203.544 750.958 221.016C750.958 238.296 754.798 251.64 762.478 261.048C770.35 270.264 780.91 274.872 794.158 274.872ZM896.918 291C891.926 291 888.854 288.888 887.702 284.664C886.55 280.44 887.798 276.12 891.445 271.704L968.342 169.176H895.766C889.43 169.176 886.262 166.104 886.262 159.96C886.262 154.008 889.43 151.032 895.766 151.032H984.182C989.942 151.032 993.494 153.144 994.838 157.368C996.182 161.4 995.126 165.528 991.67 169.752L913.91 272.856H989.942C996.278 272.856 999.446 275.832 999.446 281.784C999.446 287.928 996.278 291 989.942 291H896.918ZM1030.23 291C1025.24 291 1022.17 288.888 1021.01 284.664C1019.86 280.44 1021.11 276.12 1024.76 271.704L1101.65 169.176H1029.08C1022.74 169.176 1019.57 166.104 1019.57 159.96C1019.57 154.008 1022.74 151.032 1029.08 151.032H1117.49C1123.25 151.032 1126.81 153.144 1128.15 157.368C1129.49 161.4 1128.44 165.528 1124.98 169.752L1047.22 272.856H1123.25C1129.59 272.856 1132.76 275.832 1132.76 281.784C1132.76 287.928 1129.59 291 1123.25 291H1030.23Z" fill="#012970"/>
</svg>
